<?xml version="1.0" encoding="UTF-8" standalone="no"?>
<!-- Created with Inkscape (http://www.inkscape.org/) -->

<svg
   width="79.375mm"
   height="79.375mm"
   viewBox="0 0 79.375 79.375"
   version="1.1"
   id="svg93"
   inkscape:version="1.1.1 (3bf5ae0d25, 2021-09-20)"
   sodipodi:docname="ssh.svg"
   xmlns:inkscape="http://www.inkscape.org/namespaces/inkscape"
   xmlns:sodipodi="http://sodipodi.sourceforge.net/DTD/sodipodi-0.dtd"
   xmlns="http://www.w3.org/2000/svg"
   xmlns:svg="http://www.w3.org/2000/svg">
  <sodipodi:namedview
     id="namedview95"
     pagecolor="#ffffff"
     bordercolor="#666666"
     borderopacity="1.0"
     inkscape:pageshadow="2"
     inkscape:pageopacity="0.0"
     inkscape:pagecheckerboard="0"
     inkscape:document-units="mm"
     showgrid="false"
     inkscape:zoom="0.75187991"
     inkscape:cx="-562.58984"
     inkscape:cy="228.09494"
     inkscape:window-width="1920"
     inkscape:window-height="1016"
     inkscape:window-x="0"
     inkscape:window-y="27"
     inkscape:window-maximized="1"
     inkscape:current-layer="layer1"
     fit-margin-top="0"
     fit-margin-left="0"
     fit-margin-right="0"
     fit-margin-bottom="0" />
  <defs
     id="defs90" />
  <g
     inkscape:label="Camada 1"
     inkscape:groupmode="layer"
     id="layer1"
     transform="translate(-116.42746,-88.340569)">
    <rect
       style="fill:#000000;stroke:none;stroke-width:0.93018;stroke-miterlimit:4;stroke-dasharray:none;stroke-opacity:1;paint-order:stroke fill markers"
       id="rect359"
       width="79.375"
       height="79.375"
       x="116.42746"
       y="88.340569"
       ry="12.353021" />
    <g
       aria-label="&gt;_
SSH"
       id="text1903"
       style="font-weight:bold;font-size:29.1819px;line-height:1.25;font-family:'Liberation Mono';-inkscape-font-specification:'Liberation Mono, Bold';letter-spacing:0px;word-spacing:0px;fill:#ffffff;stroke-width:0.729549"
       transform="matrix(1.1718807,0,0,1.1718807,-20.011638,-15.184042)">
      <path
         d="m 126.17757,110.80076 v -3.23451 l 11.85515,-4.61667 -11.85515,-4.630917 v -3.248767 l 14.6337,5.571354 v 4.58817 z"
         id="path2799" />
      <path
         d="m 142.17917,115.71666 v -1.3679 h 17.64023 v 1.3679 z"
         id="path2801" />
      <path
         d="m 141.33848,143.48791 q 0,2.73581 -2.0946,4.30319 -2.08035,1.55314 -5.79933,1.55314 -3.34851,0 -5.45736,-1.41065 -2.10885,-1.41065 -2.7073,-4.1037 l 4.06096,-0.52721 q 0.32772,1.3394 1.3679,2.12309 1.04017,0.76945 2.84979,0.76945 1.88087,0 2.77855,-0.59846 0.91194,-0.59846 0.91194,-1.86662 0,-0.94043 -0.79795,-1.58163 -0.79794,-0.65545 -2.32258,-1.02593 -3.06353,-0.74094 -4.33169,-1.28241 -1.25391,-0.55571 -2.0091,-1.23966 -0.7552,-0.68395 -1.16842,-1.59588 -0.39897,-0.92618 -0.39897,-2.0661 0,-2.49357 1.99486,-3.94697 2.0091,-1.45339 5.28637,-1.45339 3.19177,0 4.98714,1.26815 1.79537,1.25391 2.32258,3.90422 l -4.07521,0.41322 q -0.62695,-2.60756 -3.32001,-2.60756 -1.51039,0 -2.30833,0.56996 -0.79794,0.55571 -0.79794,1.61013 0,0.6982 0.38472,1.16842 0.38472,0.45597 1.04017,0.78369 0.6697,0.31348 2.70731,0.84069 2.67881,0.65546 4.11795,1.46765 1.43915,0.79794 2.10885,1.93786 0.6697,1.13992 0.6697,2.59331 z"
         id="path2803" />
      <path
         d="m 158.85047,143.48791 q 0,2.73581 -2.0946,4.30319 -2.08035,1.55314 -5.79933,1.55314 -3.34851,0 -5.45736,-1.41065 -2.10885,-1.41065 -2.7073,-4.1037 l 4.06095,-0.52721 q 0.32773,1.3394 1.36791,2.12309 1.04017,0.76945 2.84979,0.76945 1.88087,0 2.77855,-0.59846 0.91194,-0.59846 0.91194,-1.86662 0,-0.94043 -0.79795,-1.58163 -0.79794,-0.65545 -2.32258,-1.02593 -3.06353,-0.74094 -4.33169,-1.28241 -1.25391,-0.55571 -2.0091,-1.23966 -0.7552,-0.68395 -1.16842,-1.59588 -0.39897,-0.92618 -0.39897,-2.0661 0,-2.49357 1.99486,-3.94697 2.0091,-1.45339 5.28637,-1.45339 3.19177,0 4.98714,1.26815 1.79537,1.25391 2.32258,3.90422 l -4.07521,0.41322 q -0.62695,-2.60756 -3.32001,-2.60756 -1.51039,0 -2.30833,0.56996 -0.79795,0.55571 -0.79795,1.61013 0,0.6982 0.38473,1.16842 0.38472,0.45597 1.04017,0.78369 0.6697,0.31348 2.70731,0.84069 2.6788,0.65546 4.11795,1.46765 1.43915,0.79794 2.10885,1.93786 0.6697,1.13992 0.6697,2.59331 z"
         id="path2805" />
      <path
         d="m 171.10459,149.05926 v -8.17891 h -5.17238 v 8.17891 h -4.20345 v -19.22187 h 4.20345 v 7.56621 h 5.17238 v -7.56621 h 4.20345 v 19.22187 z"
         id="path2807" />
    </g>
  </g>
</svg>
