<?xml version="1.0" encoding="UTF-8" standalone="no"?>
<!-- Created with Inkscape (http://www.inkscape.org/) -->

<svg
   width="211.66666mm"
   height="126.12703mm"
   viewBox="0 0 211.66666 126.12703"
   version="1.1"
   id="svg5"
   xmlns="http://www.w3.org/2000/svg"
   xmlns:svg="http://www.w3.org/2000/svg">
  <defs
     id="defs2" />
  <g
     id="layer1"
     transform="translate(-47.604658,-89.966401)">
    <path
       d="m 259.27132,198.58352 c -0.13289,0.66469 -0.7976,0.73113 -1.26287,0.93055 -24.39341,8.84012 -48.1886,7.97604 -71.18621,-4.51977 -8.77364,-4.78563 -12.62873,-9.30537 -18.87663,-20.47183 -0.26587,2.1934 -0.93054,4.18741 -1.46228,6.11495 -0.19939,0.73113 0,1.46229 0.26587,2.19342 1.79461,5.2509 2.52575,10.63472 1.59521,16.15148 -0.13294,0.79761 0.0665,1.46229 0.33233,2.12695 1.19641,3.38981 -0.0665,6.51378 -3.19041,8.24191 -2.25988,1.26288 -4.78563,1.59521 -7.24491,2.19342 -1.46227,0.39881 -3.72216,0.0666 -5.05149,-1.5952 -0.53174,-0.66469 -1.99402,-0.26589 -1.79462,-1.52874 0.19939,-1.19641 1.19641,-1.92757 2.12695,-2.39282 1.92754,-0.93054 2.32635,-2.45928 1.79461,-4.32037 -0.3988,-1.3958 -0.79761,-2.72515 -1.26287,-4.05447 -1.26288,-3.38983 -2.12695,-6.84611 -2.32635,-10.5018 -0.0665,-1.59521 -0.53174,-3.19042 -1.32934,-4.58624 -1.52874,-2.92453 -2.72515,-5.98203 -3.38982,-9.43831 -1.12994,0.33233 -2.12695,0.59821 -3.25689,0.93054 0.79761,4.0545 1.39581,8.10897 2.32635,12.03054 0.86407,3.85508 1.66168,7.77663 1.99401,11.69818 0.26587,3.32336 -0.33233,4.25391 -3.32335,5.84912 -1.72814,0.86405 -3.25688,1.7946 -5.2509,0.86405 -0.5982,-0.26586 -1.06347,0.19947 -1.5952,0.33236 -1.19641,0.3988 -2.25988,0.26586 -3.05749,-0.66469 -0.3988,-0.3988 -0.73114,-0.53172 -1.1964,-0.66466 -1.66168,-0.26586 -2.06048,-1.19641 -0.99701,-2.59223 0.3988,-0.53172 0.93054,-0.99699 1.39581,-1.46227 2.25988,-2.12695 2.59221,-4.18741 1.12994,-6.97902 -1.46228,-2.72517 -3.52276,-5.05151 -4.6527,-8.10899 -1.12994,1.06347 -1.32934,2.06048 -0.66467,3.32336 0.46527,0.86405 0.79761,1.7946 0.86408,2.79162 0.26586,3.65566 -0.19939,7.31135 -0.26587,10.96705 0,0.99701 -0.46527,2.12695 -0.93054,2.99103 -1.26287,2.12692 -1.92755,4.38682 -1.92755,6.84608 0,1.92756 -1.26287,2.99103 -3.38982,3.38983 -1.92754,0.3988 -3.92155,0.19946 -5.71616,1.26288 -0.7976,0.46527 -1.79461,-0.19947 -2.65868,-0.3988 -1.06347,-0.26589 -2.06048,-1.12994 -3.12395,-1.66168 -0.79761,-0.39881 -0.3988,-2.85809 0.46527,-3.58922 0.3988,-0.33233 0.93054,-0.59822 1.46227,-0.79761 3.45629,-1.19641 4.12096,-2.72514 4.18742,-6.51378 0.0665,-2.65867 -0.66466,-4.71915 -2.12694,-6.84611 -1.26287,-1.86106 -1.59521,-4.18741 -1.79461,-6.38083 -0.13294,-1.52874 -0.73114,-2.65867 -2.12694,-3.45628 -1.79461,-0.93055 -3.19042,-2.32634 -4.18743,-4.18741 -0.7976,-1.46229 -2.32634,-2.19342 -3.19042,-3.58922 -0.13294,-0.19946 -0.53173,-0.26588 -0.86407,-0.26588 -2.25988,0 -4.38682,-0.66467 -6.580233,-1.3958 -0.531738,0.7976 -0.465269,1.66168 -0.598204,2.45928 -0.398802,2.06046 -0.86407,4.12094 -1.861076,5.98204 -1.528743,2.85806 -2.326347,5.98203 -3.456288,8.97304 -1.52874,3.92155 -2.193412,8.2419 -5.051494,11.63173 -0.199388,0.19947 -0.265867,0.53175 -0.398802,0.79761 -0.997005,2.79161 -1.79461,3.45627 -4.71916,3.52274 -0.864071,0.0666 -1.728142,0.19947 -2.525746,0.53175 -1.661678,0.73113 -3.456288,0.19946 -5.184429,0.33233 -0.930539,0.0666 -2.06048,-0.99702 -3.389819,-1.06346 -0.531737,0 -0.797604,-0.73116 -0.465271,-1.19641 0.864073,-1.46229 1.063474,-3.4563 3.057485,-4.12097 3.921554,-1.32934 4.386825,-4.25388 4.320356,-7.97604 -0.06647,-7.17844 0.997006,-14.35688 3.123952,-21.26946 0.664669,-2.06048 1.262873,-4.12094 1.595209,-6.38084 -1.462274,-0.13289 -2.791616,-0.13289 -4.120957,-0.33233 -9.305384,-1.46226 -16.350892,-6.58022 -21.402386,-14.22393 -10.568259,-16.01856 -12.628736,-33.03412 -3.456285,-50.31556 5.250895,-9.438317 13.359875,-14.489811 24.393402,-14.223944 5.117963,0.132942 8.441313,2.525746 10.967061,6.779638 2.193413,3.655686 0.06647,5.649696 -3.522753,6.979036 -1.32934,0.46527 -2.725147,0.19939 -3.988023,-0.33233 -4.785626,-2.12695 -8.906581,-0.39881 -12.628736,2.45928 -4.519759,3.52275 -6.580237,8.50778 -7.045505,14.091 -0.598204,7.9096 1.661675,14.88862 7.776643,20.206 5.051494,4.45329 9.105983,3.7886 12.894604,-1.8611 0.797604,-1.19641 1.528743,-2.39281 2.193412,-3.65566 1.462277,-2.72517 3.256887,-5.18443 5.38383,-7.31139 3.522754,-3.58922 6.513771,-7.57724 9.371852,-11.76468 8.042511,-11.63172 19.408371,-17.480817 33.366451,-17.480817 19.80718,0.06647 34.49639,9.637727 44.46645,26.453887 3.72214,6.24789 7.71016,12.2964 10.03653,19.27545 1.99401,6.11495 4.85207,11.96406 7.8431,17.68021 4.71916,8.97306 10.76766,16.81617 18.41138,23.39642 3.98802,3.45627 8.84012,5.64967 13.69219,7.8431 9.63773,4.32035 19.74072,5.58323 30.17605,5.31737 1.19641,-0.0666 1.19641,0 2.06048,0.53172 z"
       id="path56"
       style="stroke-width:0.66467;fill:#008080" />
    <g
       aria-label="COBOL"
       id="text701"
       style="font-size:32.7721px;line-height:1.25;letter-spacing:0px;word-spacing:0px;fill:#ffffff;stroke-width:0.819302">
      <path
         d="m 102.05191,136.2659 q 1.02413,0 1.93625,0.064 0.92811,0.064 1.34416,0.12802 l 0.41606,0.064 v 2.3843 h -3.69647 q -2.784344,0 -4.400546,2.08026 -1.6002,2.06426 -1.6002,5.64871 0,4.16052 1.52019,5.95274 1.536192,1.77623 4.480556,1.77623 h 3.69647 v 2.38429 q -1.40818,0.25604 -3.69647,0.25604 -2.128262,0 -3.71246,-0.52807 -1.568196,-0.54407 -2.752344,-1.72822 -1.184148,-1.18414 -1.792224,-3.2164 -0.592074,-2.03225 -0.592074,-4.89661 0,-4.8006 2.368296,-7.58495 2.384298,-2.78435 6.480806,-2.78435 z"
         style="font-family:'agave Nerd Font';-inkscape-font-specification:'agave Nerd Font, Normal'"
         id="path3857" />
      <path
         d="m 109.54085,151.59582 q -0.46406,-2.06426 -0.46406,-4.96062 0,-2.89636 0.46406,-4.94462 0.48006,-2.06426 1.39218,-3.26441 0.92811,-1.20015 2.16027,-1.74422 1.23215,-0.54406 2.89636,-0.54406 1.66421,0 2.89636,0.54406 1.23215,0.54407 2.14427,1.74422 0.92811,1.20015 1.39217,3.26441 0.48006,2.04826 0.48006,4.94462 0,2.89636 -0.48006,4.96062 -0.46406,2.04826 -1.39217,3.24841 -0.91212,1.20015 -2.14427,1.74421 -1.23215,0.54407 -2.89636,0.54407 -1.66421,0 -2.89636,-0.54407 -1.23216,-0.54406 -2.16027,-1.74421 -0.91212,-1.20015 -1.39218,-3.24841 z m 8.14502,-12.52957 q -0.72009,-0.41605 -1.69621,-0.41605 -0.97612,0 -1.71222,0.41605 -0.72009,0.41605 -1.26415,1.32817 -0.52807,0.91211 -0.81611,2.48031 -0.27203,1.55219 -0.27203,3.76047 0,2.20828 0.27203,3.77647 0.28804,1.5522 0.81611,2.46431 0.54406,0.91211 1.26415,1.32817 0.7361,0.41605 1.71222,0.41605 0.97612,0 1.69621,-0.41605 0.73609,-0.41606 1.26416,-1.32817 0.54407,-0.91211 0.8161,-2.46431 0.28804,-1.56819 0.28804,-3.77647 0,-2.20828 -0.28804,-3.76047 -0.27203,-1.5682 -0.8161,-2.48031 -0.52807,-0.91212 -1.26416,-1.32817 z"
         style="font-family:'agave Nerd Font';-inkscape-font-specification:'agave Nerd Font, Normal'"
         id="path3859" />
      <path
         d="m 126.23094,136.39392 h 4.09651 q 3.60045,0 5.50469,1.26416 1.92024,1.26415 1.92024,4.08051 0,0.8481 -0.28804,1.55219 -0.27203,0.70409 -0.67208,1.10414 -0.40005,0.40005 -0.8001,0.68809 -0.40005,0.27203 -0.67209,0.36804 l -0.28803,0.096 q 0.17602,0.048 0.46406,0.14402 0.28803,0.096 1.00812,0.49606 0.7361,0.40005 1.29617,0.92812 0.57607,0.52807 1.02412,1.48819 0.46406,0.96012 0.46406,2.12826 0,1.69621 -0.60807,2.89636 -0.60808,1.20015 -1.80823,1.90424 -1.20015,0.70409 -2.80035,1.02413 -1.6002,0.32004 -3.74447,0.32004 h -4.09651 z m 2.72034,2.51231 v 5.68071 h 1.37617 q 2.17627,0 3.44043,-0.76809 1.26416,-0.7681 1.26416,-2.08026 0,-1.31217 -1.26416,-2.06426 -1.26416,-0.7681 -3.44043,-0.7681 z m 0,8.19303 v 7.26491 h 1.37617 q 1.55219,0 2.62433,-0.14402 1.07213,-0.16002 1.92024,-0.54407 0.86411,-0.40005 1.28016,-1.12014 0.41605,-0.73609 0.41605,-1.82423 0,-1.08813 -0.41605,-1.80822 -0.41605,-0.7361 -1.28016,-1.12014 -0.84811,-0.40005 -1.92024,-0.54407 -1.07214,-0.16002 -2.62433,-0.16002 z"
         style="font-family:'agave Nerd Font';-inkscape-font-specification:'agave Nerd Font, Normal'"
         id="path3861" />
      <path
         d="m 142.31295,151.59582 q -0.46406,-2.06426 -0.46406,-4.96062 0,-2.89636 0.46406,-4.94462 0.48006,-2.06426 1.39218,-3.26441 0.92811,-1.20015 2.16027,-1.74422 1.23215,-0.54406 2.89636,-0.54406 1.66421,0 2.89636,0.54406 1.23215,0.54407 2.14427,1.74422 0.92811,1.20015 1.39217,3.26441 0.48006,2.04826 0.48006,4.94462 0,2.89636 -0.48006,4.96062 -0.46406,2.04826 -1.39217,3.24841 -0.91212,1.20015 -2.14427,1.74421 -1.23215,0.54407 -2.89636,0.54407 -1.66421,0 -2.89636,-0.54407 -1.23216,-0.54406 -2.16027,-1.74421 -0.91212,-1.20015 -1.39218,-3.24841 z m 8.14502,-12.52957 q -0.72009,-0.41605 -1.69621,-0.41605 -0.97612,0 -1.71222,0.41605 -0.72009,0.41605 -1.26415,1.32817 -0.52807,0.91211 -0.81611,2.48031 -0.27203,1.55219 -0.27203,3.76047 0,2.20828 0.27203,3.77647 0.28804,1.5522 0.81611,2.46431 0.54406,0.91211 1.26415,1.32817 0.7361,0.41605 1.71222,0.41605 0.97612,0 1.69621,-0.41605 0.73609,-0.41606 1.26416,-1.32817 0.54407,-0.91211 0.8161,-2.46431 0.28804,-1.56819 0.28804,-3.77647 0,-2.20828 -0.28804,-3.76047 -0.27203,-1.5682 -0.8161,-2.48031 -0.52807,-0.91212 -1.26416,-1.32817 z"
         style="font-family:'agave Nerd Font';-inkscape-font-specification:'agave Nerd Font, Normal'"
         id="path3863" />
      <path
         d="m 159.5151,136.39392 h 2.72034 v 17.97025 h 9.05713 v 2.51231 H 159.5151 Z"
         style="font-family:'agave Nerd Font';-inkscape-font-specification:'agave Nerd Font, Normal'"
         id="path3865" />
    </g>
  </g>
</svg>
