<?xml version="1.0" encoding="UTF-8" standalone="no"?>
<!-- Created with Inkscape (http://www.inkscape.org/) -->

<svg
   width="117.21407mm"
   height="126.91636mm"
   viewBox="0 0 117.21407 126.91636"
   version="1.1"
   id="svg5"
   inkscape:version="1.1.1 (3bf5ae0d25, 2021-09-20)"
   sodipodi:docname="oh-god-why.svg"
   xmlns:inkscape="http://www.inkscape.org/namespaces/inkscape"
   xmlns:sodipodi="http://sodipodi.sourceforge.net/DTD/sodipodi-0.dtd"
   xmlns="http://www.w3.org/2000/svg"
   xmlns:svg="http://www.w3.org/2000/svg">
  <sodipodi:namedview
     id="namedview7"
     pagecolor="#ffffff"
     bordercolor="#666666"
     borderopacity="1.0"
     inkscape:pageshadow="2"
     inkscape:pageopacity="0.0"
     inkscape:pagecheckerboard="0"
     inkscape:document-units="mm"
     showgrid="false"
     fit-margin-top="0"
     fit-margin-left="0"
     fit-margin-right="0"
     fit-margin-bottom="0"
     inkscape:zoom="0.75187991"
     inkscape:cx="30.589991"
     inkscape:cy="467.49487"
     inkscape:window-width="1920"
     inkscape:window-height="1016"
     inkscape:window-x="0"
     inkscape:window-y="27"
     inkscape:window-maximized="1"
     inkscape:current-layer="layer1" />
  <defs
     id="defs2" />
  <g
     inkscape:label="Camada 1"
     inkscape:groupmode="layer"
     id="layer1"
     transform="translate(224.38779,762.83912)">
    <path
       style="fill:#000000;stroke-width:0.101528"
       d="m -211.84128,-636.3543 c 0.41212,-10.53096 1.80762,-21.10721 5.80189,-30.93257 0.19648,-4.59753 6.36722,-10.15555 4.01683,-13.71582 -7.29714,-3.46312 -15.16373,-7.64386 -18.30808,-15.59186 -6.61308,-12.14152 -3.90308,-26.51282 -0.5749,-39.20692 2.12617,-5.91138 3.41118,-12.71689 8.07873,-17.24664 5.74086,-3.23115 12.1813,-5.08601 18.09634,-8.00828 7.63573,-3.48663 16.00268,-0.93509 23.90202,-0.0664 6.87888,1.37697 13.05277,5.06485 19.05103,8.54582 8.21389,6.6062 15.37493,15.03208 18.26576,25.366 2.28759,7.98737 6.74856,16.65759 3.3511,24.95199 -4.52572,8.05444 -10.86098,15.0805 -18.45405,20.353 -0.43656,9.29365 -0.34,18.65881 0.0377,27.96193 0.51237,6.00176 0.93343,12.03029 2.17386,17.93769 -4.16095,-0.18577 -1.53333,-8.61709 -3.02835,-11.70543 -1.14244,-9.72519 -0.52356,-19.53273 -0.8592,-29.30139 -4.28164,3.70761 -10.08046,5.55791 -14.00274,9.52599 -1.18778,5.65037 0.60233,11.49109 0.33351,17.23714 -0.34937,4.47199 1.86952,10.97629 0.59402,14.32729 -16.17849,0 -32.35698,0 -48.53547,0 l 0.0437,-0.31469 z m 40.81766,-39.2729 c 4.74066,-0.6401 9.54347,-1.4991 13.66541,-4.00952 4.51059,-2.73998 9.44663,-4.61305 13.40774,-8.1392 4.15815,-3.97413 7.92096,-8.37679 10.98953,-13.24691 2.30155,-2.73906 3.20542,-5.77107 2.56785,-9.42105 -0.30191,-3.96716 -2.41681,-8.27648 -3.21741,-11.5259 -0.005,-3.34164 -2.49352,-6.14411 -3.27094,-9.48493 -2.029,-4.94551 -5.30356,-9.52894 -9.21976,-13.31188 -3.52343,-3.25494 -6.75904,-7.59225 -10.97242,-9.03053 -4.06626,-1.28836 -7.94439,-4.62194 -12.11521,-5.35697 -4.19117,-0.99811 -9.82192,-2.0485 -13.39679,-1.59823 2.99449,3.41261 4.15574,9.3367 3.7277,14.16377 -0.73205,3.24219 -3.82291,4.49972 -2.25751,7.55008 3.94358,5.87488 1.96568,-8.01341 7.01443,-5.14204 -0.60812,3.33608 -1.64276,7.58171 1.37825,8.3613 5.19549,-0.11088 -0.79303,-6.52961 1.37238,-7.93027 0.4307,-2.59043 4.44844,-2.85453 2.85473,-0.0407 1.02104,3.58537 0.58163,8.18744 5.89893,7.47741 2.36575,1.20679 10.25109,-1.62691 10.11052,0.58503 -1.00727,3.20045 -5.09513,1.14326 -7.52155,2.12954 -3.12188,-0.7038 -4.94485,2.21702 -1.19296,1.66303 3.42444,-0.92869 11.45729,1.64118 8.25607,5.88609 -0.34208,2.55292 -3.45618,0.94309 -5.19639,1.39033 -1.60568,-0.0319 -7.19645,-0.26538 -2.68814,1.07202 3.36067,1.90093 6.40219,0.13921 9.26116,-0.75518 -0.76461,4.40943 -7.03619,4.02711 -10.5952,2.58154 -4.52464,-0.58508 -5.9766,-4.58113 -5.16925,-8.59569 0.0127,-2.35138 2.3793,-3.70709 -1.56163,-2.62173 -4.64407,0.0491 -1.28055,5.45041 -0.28792,7.79199 2.37436,5.0178 9.30222,2.91313 10.60751,8.33356 2.1693,4.0652 2.84591,8.98766 5.11642,12.62607 0.80973,2.40388 -1.85185,9.98377 -3.21746,4.43216 0.27585,-5.32504 -2.25153,-10.07738 -3.59653,-14.96548 -1.63437,-4.02245 -1.82815,-1.63952 -2.08929,0.70823 -1.11372,2.30439 -4.18394,0.50459 -5.68529,1.63362 2.7454,6.50919 -10.2467,4.98828 -4.70999,-0.40565 -1.23184,0.55406 -2.6967,2.04479 -5.08764,1.44712 -3.66939,6.60711 5.64842,5.25905 9.61295,4.68982 4.08043,-1.95738 7.73845,-0.36562 7.78724,4.51867 -1.07136,1.8286 -1.53729,5.91832 -4.47713,5.93717 -4.47066,0.0819 -2.2784,0.31141 -0.50109,1.22729 -1.84747,2.50037 -10.64514,-2.83166 -11.16976,3.69677 -3.80783,5.05633 3.85358,9.26283 8.13733,10.26077 4.15217,0.31377 7.99607,-1.90075 9.88405,-5.52463 0.40556,-1.49606 -1.60713,-6.1058 1.24766,-3.59392 2.33721,5.74373 -1.09105,10.3713 -6.64035,11.51642 -1.99125,0.82759 -4.89302,0.0152 -7.165,0.39028 -5.44499,-0.95578 -3.74282,3.20437 0.10475,2.63037 z m 21.47322,-33.86632 c 2.0871,-2.89281 2.43983,-5.87979 1.97204,-9.56172 -1.31766,-2.14611 0.83522,-6.51529 1.32745,-2.96193 -0.12651,3.47755 0.2444,7.108 -0.18019,10.49394 -0.8217,1.22553 -1.2863,2.49897 -3.1193,2.02971 z m -12.43721,-29.8401 c -5.40664,1.52574 -2.76938,-9.59423 -1.5679,-2.66941 3.29883,4.64822 9.74036,-2.34062 12.0756,1.77552 -3.13482,1.02721 -7.10531,1.1842 -10.5077,0.89389 z m -5.88864,40.17549 c 4.38562,1.20208 5.55358,-3.28936 1.24108,-2.91783 -3.79125,0.069 -7.66389,-0.24621 -11.39133,0.15172 -5.10426,2.94729 3.27245,2.61137 5.35705,2.93614 1.59787,-0.01 3.20237,-0.0359 4.7932,-0.17003 z m -10.45741,-4.10237 c 5.25142,-0.32156 10.57239,0.10641 15.78765,-0.38484 -1.92787,-5.09419 -8.5101,0.77761 -13.06239,-1.26374 -2.40585,-2.37281 -7.34194,2.75448 -2.72526,1.64858 z m 7.64826,-6.41679 c 4.75678,-1.89375 -4.09632,-3.20803 -1.0811,0.65414 l 1.08113,-0.65414 z m 7.27219,-6.32592 c 1.27261,-5.99918 -6.58944,-3.6987 -7.74163,-9.05989 -2.50385,-2.97921 0.99881,-10.73067 -5.1007,-8.92259 -4.52388,0.94582 1.48643,5.25378 -0.8691,8.1189 -1.95234,2.74643 -1.42656,6.18057 2.45377,4.54743 1.83928,3.20277 -0.61859,2.0688 -1.98756,2.15273 -0.31496,2.25564 -0.0724,6.01524 2.73787,2.60006 3.29357,1.04696 0.7906,-4.94695 4.13352,-1.69829 1.92173,-0.21146 5.72525,4.01387 6.37383,2.26165 z m 8.01005,-9.71916 c 3.5662,-1.56642 -1.34761,-6.47461 -0.42777,-2.08388 0.23989,0.30164 -0.0909,2.46823 0.42777,2.08388 z m -24.79966,-0.41926 c 5.33454,-0.22042 -1.41339,-7.42443 0.0583,-2.33572 0.66216,0.50678 -1.32023,3.35886 -0.0583,2.33572 z m 19.25231,-0.0146 c -1.50959,-2.97433 2.71382,-5.64819 -2.20467,-4.08278 -3.72425,1.09115 -0.19589,5.76547 2.20467,4.08278 z m -23.64896,0.1015 c -3.02746,-2.23438 1.8763,-6.60307 -2.86295,-4.96197 -4.83188,1.48367 -1.32133,6.54501 2.31231,5.01577 l 0.55064,-0.0539 z"
       id="path9451" />
    <text
       xml:space="preserve"
       style="font-style:normal;font-variant:normal;font-weight:normal;font-stretch:normal;font-size:14.3238px;line-height:1.25;font-family:Dyuthi;-inkscape-font-specification:'Dyuthi, Normal';font-variant-ligatures:normal;font-variant-caps:normal;font-variant-numeric:normal;font-variant-east-asian:normal;letter-spacing:0px;word-spacing:0px;fill:#000000;fill-opacity:1;stroke:none;stroke-width:0.358096"
       x="-143.16193"
       y="-674.23712"
       id="text10016"><tspan
         sodipodi:role="line"
         id="tspan13004"
         x="-143.16193"
         y="-674.23712"
         style="stroke-width:0.358096">OH</tspan><tspan
         sodipodi:role="line"
         id="tspan13006"
         x="-143.16193"
         y="-656.3324"
         style="stroke-width:0.358096">GOD</tspan><tspan
         sodipodi:role="line"
         id="tspan13008"
         x="-143.16193"
         y="-638.42761"
         style="stroke-width:0.358096">WHY?</tspan></text>
  </g>
</svg>
