<?xml version="1.0" encoding="UTF-8" standalone="no"?>
<!-- Created with Inkscape (http://www.inkscape.org/) -->

<svg
   width="24"
   height="24"
   viewBox="0 0 6.3499999 6.3500002"
   version="1.1"
   id="svg8031"
   inkscape:version="1.1.1 (3bf5ae0d25, 2021-09-20)"
   sodipodi:docname="postgres.svg"
   xmlns:inkscape="http://www.inkscape.org/namespaces/inkscape"
   xmlns:sodipodi="http://sodipodi.sourceforge.net/DTD/sodipodi-0.dtd"
   xmlns="http://www.w3.org/2000/svg"
   xmlns:svg="http://www.w3.org/2000/svg">
  <sodipodi:namedview
     id="namedview8033"
     pagecolor="#ffffff"
     bordercolor="#666666"
     borderopacity="1.0"
     inkscape:pageshadow="2"
     inkscape:pageopacity="0.0"
     inkscape:pagecheckerboard="0"
     inkscape:document-units="mm"
     showgrid="false"
     units="px"
     inkscape:zoom="22.625"
     inkscape:cx="12"
     inkscape:cy="12"
     inkscape:window-width="1573"
     inkscape:window-height="752"
     inkscape:window-x="194"
     inkscape:window-y="162"
     inkscape:window-maximized="0"
     inkscape:current-layer="layer1" />
  <defs
     id="defs8028">












</defs>
  <g
     inkscape:label="Camada 1"
     inkscape:groupmode="layer"
     id="layer1">
    <g
       id="orginal"
       style="clip-rule:nonzero;fill-rule:nonzero;stroke:#000000;stroke-miterlimit:4"
       transform="matrix(0.01188828,0,0,0.01188828,0.60502296,0.52917036)">
	</g>
    <path
       id="path8276"
       style="color:#000000;fill:#000000;stroke-width:3.77953;stroke-linecap:round;stroke-linejoin:round;-inkscape-stroke:none"
       d="M 16.75 2 C 16.012245 2.00685 15.369283 2.1189886 14.925781 2.2226562 C 14.70403 2.2744902 14.527109 2.3257257 14.416016 2.3613281 C 14.363626 2.3781171 14.334526 2.3879045 14.306641 2.3984375 C 14.304941 2.3990733 14.300428 2.3978192 14.298828 2.3984375 C 14.291728 2.4011475 14.285884 2.40259 14.277344 2.40625 C 14.274544 2.40745 14.267339 2.4120456 14.261719 2.4160156 C 13.804179 2.3017567 13.311186 2.2314087 12.777344 2.2226562 C 12.701374 2.2214064 12.626504 2.2208464 12.552734 2.2226562 C 11.60698 2.2459205 10.842745 2.5168116 10.238281 2.9296875 C 9.7732058 2.7537965 8.1235265 2.1858034 6.4589844 2.28125 C 5.477246 2.3375439 4.4692661 2.6316684 3.734375 3.4101562 C 2.9994837 4.1886446 2.5724749 5.4247777 2.6640625 7.2558594 C 2.6855795 7.6861711 2.8299093 8.577742 3.078125 9.6855469 C 3.3263407 10.793352 3.6741621 12.097722 4.1035156 13.265625 C 4.5328692 14.433528 5.0282342 15.461583 5.6464844 16.0625 C 5.9556097 16.362958 6.3219918 16.567875 6.7246094 16.550781 C 7.1272266 16.533691 7.5091126 16.300755 7.8535156 15.886719 C 8.7322959 14.829498 9.5042682 14.01942 9.5507812 13.970703 C 9.9060835 14.142576 10.300258 14.239367 10.710938 14.246094 C 10.711039 14.283074 10.695861 14.321584 10.681641 14.359375 L 10.681641 14.361328 C 10.431763 14.653656 10.297649 14.84741 10.179688 14.941406 C 10.044407 15.049198 9.8287173 15.135609 9.1972656 15.265625 C 8.8492278 15.337365 8.6196262 15.418395 8.4453125 15.560547 C 8.3581565 15.631627 8.2819579 15.727905 8.2539062 15.849609 C 8.2258624 15.97131 8.248926 16.09272 8.296875 16.181641 C 8.392777 16.359479 8.5415013 16.454203 8.6894531 16.535156 C 8.8374065 16.616106 8.9958936 16.675247 9.1464844 16.712891 C 9.4693543 16.793681 10.009704 16.896564 10.615234 16.792969 C 11.064023 16.716189 11.548956 16.515312 11.980469 16.121094 C 11.972569 16.913134 11.975566 17.684035 12.003906 18.34375 C 12.024616 18.826642 12.059399 19.249788 12.099609 19.599609 C 12.139819 19.949431 12.180619 20.215122 12.261719 20.417969 C 12.379103 20.711381 12.571094 21.185586 13 21.546875 C 13.428907 21.908164 14.095513 22.11927 15.007812 21.923828 C 15.745388 21.7657 16.295629 21.522396 16.683594 21.119141 C 17.071558 20.715886 17.275834 20.18103 17.392578 19.503906 C 17.528875 18.714198 17.754817 16.887346 17.861328 15.896484 C 17.864628 15.897584 17.867694 15.899391 17.871094 15.900391 C 18.121831 15.978321 18.414752 15.999604 18.734375 15.996094 C 19.373622 15.989094 20.093087 15.868031 20.595703 15.634766 C 21.162294 15.371635 21.604628 15.049963 21.828125 14.712891 C 21.883995 14.628621 21.935496 14.538223 21.947266 14.416016 C 21.959016 14.293812 21.894186 14.131321 21.783203 14.046875 C 21.561239 13.877983 21.34458 13.920197 21.052734 13.980469 C 19.892937 14.21986 19.314942 14.122871 19.060547 14.017578 C 18.996947 13.991248 18.953191 13.966642 18.921875 13.945312 C 20.142977 12.087637 21.007578 10.016222 21.466797 8.2382812 C 21.703407 7.3222056 21.832946 6.4865975 21.84375 5.7871094 C 21.85455 5.0876212 21.76332 4.5236862 21.458984 4.1347656 C 20.105788 2.4056738 18.225511 1.9862937 16.75 2 z M 14.470703 2.40625 C 14.489633 2.4094 14.513672 2.4140625 14.513672 2.4140625 C 14.513672 2.4140625 14.513644 2.421665 14.513672 2.421875 C 14.499772 2.415565 14.485413 2.410341 14.470703 2.40625 z M 16.75 2.5917969 C 18.113496 2.5791319 19.775812 2.939327 20.994141 4.4960938 C 21.143972 4.6875716 21.261731 5.146291 21.251953 5.7792969 C 21.242153 6.4123024 21.126174 7.2080932 20.898438 8.0898438 C 20.475387 9.7277665 19.682104 11.655317 18.580078 13.392578 C 18.546168 13.351538 18.512548 13.310088 18.478516 13.267578 C 18.897572 12.573527 18.973107 11.863598 18.941406 11.220703 C 18.907716 10.537388 18.769793 9.9157304 18.787109 9.3828125 C 18.810519 8.6489072 19.000373 8.1287329 18.974609 7.359375 C 18.976109 7.353585 18.977516 7.3496651 18.978516 7.3457031 C 18.992646 7.2869501 18.988228 7.2471221 18.986328 7.2128906 C 18.982628 7.1444246 18.975551 7.0820811 18.957031 7.0058594 C 18.920014 6.8534085 18.854799 6.6627547 18.757812 6.4296875 C 18.56381 5.9635493 18.241573 5.3517435 17.761719 4.7382812 C 17.178752 3.992997 16.35182 3.2414534 15.253906 2.7558594 C 15.649127 2.6739451 16.16916 2.5971925 16.75 2.5917969 z M 12.771484 2.8203125 C 14.981779 2.8565505 16.411407 3.9720465 17.294922 5.1015625 C 17.736679 5.6663203 18.036236 6.2305796 18.210938 6.6503906 C 18.285016 6.8284215 18.321314 6.9631389 18.351562 7.0722656 C 17.375426 6.9929186 16.562694 7.0425286 16.181641 7.4785156 C 15.734378 7.9902572 15.754992 8.7195293 15.929688 9.4199219 C 16.104378 10.120314 16.440771 10.834329 16.75 11.427734 C 16.904613 11.724439 17.052828 11.993102 17.169922 12.203125 C 17.287015 12.41315 17.379366 12.584635 17.398438 12.630859 C 17.577059 13.063929 17.803505 13.363905 17.982422 13.589844 C 18.106409 13.746418 18.143097 13.81009 18.189453 13.884766 C 18.119003 13.904416 18.065409 13.914564 17.966797 13.958984 C 17.79916 14.034484 17.613535 14.172758 17.488281 14.402344 C 17.36716 14.624358 17.30954 14.917256 17.326172 15.294922 L 17.326172 15.296875 C 17.288212 15.799823 16.967987 18.476866 16.808594 19.400391 C 16.702225 20.017335 16.534035 20.423752 16.255859 20.712891 C 15.977684 21.002029 15.564211 21.20283 14.888672 21.347656 C 14.109514 21.514573 13.680175 21.34814 13.382812 21.097656 C 13.085454 20.847173 12.919102 20.478374 12.806641 20.197266 C 12.772891 20.112856 12.719381 19.861565 12.681641 19.533203 C 12.643891 19.204842 12.61407 18.787806 12.59375 18.314453 C 12.55311 17.367748 12.553268 16.196869 12.585938 15.029297 C 12.586243 14.998167 12.581636 14.96719 12.572266 14.9375 C 12.560186 14.84421 12.537509 14.753373 12.505859 14.667969 C 12.394862 14.368453 12.185376 14.105084 11.884766 13.980469 C 11.786436 13.939739 11.623192 13.86633 11.412109 13.884766 C 11.372189 13.888266 11.331669 13.899356 11.291016 13.910156 C 11.353936 13.659727 11.464363 13.359677 11.589844 13.021484 C 11.888729 12.217232 12.695351 11.152522 12.076172 8.2890625 C 11.947156 7.69257 11.593448 7.2974175 11.162109 7.1308594 C 10.730771 6.9643016 10.259861 6.9997216 9.8183594 7.1015625 C 9.3768576 7.2034019 8.9586671 7.375866 8.6445312 7.5507812 C 8.6411214 7.5526812 8.6381456 7.5547406 8.6347656 7.5566406 C 8.6774956 7.0225794 8.7885934 6.226684 9.0878906 5.4335938 C 9.3451517 4.7518959 9.7369788 4.0872469 10.320312 3.6015625 C 10.903649 3.1158781 11.678539 2.8023895 12.771484 2.8203125 z M 6.9648438 2.8632812 C 8.059121 2.8858602 9.1247447 3.1797745 9.703125 3.3691406 C 9.1514809 3.9080386 8.7808361 4.5703785 8.5332031 5.2265625 C 7.9939521 6.6554847 8.0147346 8.0419134 8.0175781 8.1640625 C 8.0169884 8.1738125 8.01765 8.1826274 8.0175781 8.1933594 C 8.0175983 8.1940476 8.0175781 8.2089844 8.0175781 8.2089844 C 8.0180299 8.4033093 8.0500049 8.7285474 8.0605469 9.1972656 C 8.0713559 9.6777014 8.0556266 10.282461 7.9648438 10.931641 C 7.8073373 12.057955 8.2735928 13.05334 9.0410156 13.652344 C 8.8905459 13.810461 8.2265949 14.512685 7.4042969 15.501953 C 7.1241265 15.838767 6.8935361 15.9509 6.703125 15.958984 C 6.5127139 15.967069 6.3002974 15.875607 6.0605469 15.642578 C 5.5810462 15.17652 5.0820789 14.190345 4.6660156 13.058594 C 4.2499524 11.926843 3.9060125 10.647151 3.6621094 9.5585938 C 3.4182064 8.4700369 3.2721996 7.5533476 3.2558594 7.2265625 C 3.1694446 5.4988993 3.5632467 4.4528655 4.1640625 3.8164062 C 4.7648785 3.1799479 5.6078881 2.9220237 6.4960938 2.8710938 C 6.6522836 2.8621338 6.8085184 2.8600534 6.9648438 2.8632812 z M 17.853516 7.5058594 C 18.013598 7.5089094 18.196393 7.5264084 18.392578 7.5507812 C 18.380568 8.131295 18.221226 8.6080325 18.197266 9.359375 C 18.176436 9.9997695 18.321112 10.632362 18.351562 11.25 C 18.376222 11.74992 18.333242 12.230373 18.099609 12.71875 C 18.045679 12.62229 17.99366 12.519558 17.945312 12.402344 C 17.892835 12.275129 17.804931 12.12469 17.6875 11.914062 C 17.570069 11.703441 17.423135 11.441577 17.273438 11.154297 C 16.974029 10.579736 16.659908 9.8890958 16.505859 9.2714844 C 16.351811 8.6538729 16.373738 8.1543903 16.623047 7.8691406 C 16.810029 7.6552043 17.17962 7.4930004 17.853516 7.5058594 z M 10.425781 7.6113281 C 10.620296 7.6046481 10.799048 7.6263658 10.947266 7.6835938 C 11.210763 7.7853422 11.405213 7.968741 11.501953 8.4160156 C 12.094205 11.154951 11.39262 11.852573 11.035156 12.814453 C 10.922413 13.118316 10.91232 13.393012 10.835938 13.677734 C 9.5232635 13.722881 8.3347168 12.544767 8.5488281 11.013672 C 8.6455954 10.321706 8.6636065 9.6850273 8.6523438 9.1835938 C 8.6420256 8.7237175 8.619543 8.4106465 8.6152344 8.2832031 C 8.6220044 8.2771531 8.6204044 8.2744931 8.6289062 8.2675781 C 8.6928862 8.2155421 8.7974901 8.1430542 8.9316406 8.0683594 C 9.1999432 7.9189879 9.5789387 7.7635973 9.9511719 7.6777344 C 10.114024 7.6401694 10.274492 7.6165254 10.425781 7.6113281 z M 17.453125 7.8359375 C 17.41016 7.8367065 17.364932 7.8411649 17.318359 7.8476562 C 17.069974 7.8822654 16.879463 7.9892685 16.892578 8.0859375 C 16.906185 8.182512 17.116897 8.3822767 17.365234 8.3476562 C 17.613856 8.3131885 17.804509 8.0556534 17.791016 7.9589844 C 17.780075 7.8806036 17.639307 7.8326051 17.453125 7.8359375 z M 10.529297 8.0332031 C 10.364171 8.0372923 10.242271 8.0839354 10.232422 8.15625 C 10.218778 8.252919 10.409631 8.5104541 10.658203 8.5449219 C 10.906348 8.5795423 11.119349 8.3778245 11.132812 8.28125 C 11.146305 8.184581 10.9557 8.0795348 10.707031 8.0449219 C 10.644959 8.0362573 10.584339 8.0318401 10.529297 8.0332031 z M 18.566406 14.373047 C 18.646476 14.440887 18.702084 14.510659 18.832031 14.564453 C 19.241238 14.733852 19.9502 14.779628 21.097656 14.556641 C 20.92336 14.723038 20.719022 14.921421 20.34375 15.095703 C 19.976622 15.266088 19.289642 15.400086 18.728516 15.40625 C 18.447954 15.40935 18.192033 15.378981 18.041016 15.332031 C 17.970566 15.310151 17.932494 15.29379 17.916016 15.28125 C 17.901236 14.972527 17.948286 14.791421 18.003906 14.689453 C 18.060896 14.584991 18.121756 14.538212 18.210938 14.498047 C 18.300116 14.457877 18.405522 14.440227 18.535156 14.394531 C 18.544056 14.391431 18.556956 14.376517 18.566406 14.373047 z M 11.482422 14.474609 C 11.525022 14.475709 11.574942 14.493664 11.65625 14.527344 C 11.75147 14.566814 11.890321 14.710795 11.951172 14.875 C 12.012022 15.039205 12.003326 15.191835 11.929688 15.294922 C 11.501005 15.895172 10.994317 16.128375 10.511719 16.210938 C 10.02912 16.293496 9.5695746 16.207439 9.2871094 16.136719 C 9.1881124 16.111959 9.0639185 16.071609 8.96875 16.019531 C 8.939723 16.003661 8.9455191 15.998752 8.9238281 15.982422 C 8.9942521 15.945382 9.0799226 15.890542 9.3164062 15.841797 C 9.9716267 15.706887 10.296171 15.599757 10.548828 15.398438 C 10.801486 15.197113 10.906377 14.981056 11.212891 14.638672 C 11.343069 14.492982 11.418072 14.480648 11.464844 14.476562 C 11.470644 14.476055 11.476332 14.474509 11.482422 14.474609 z "
       transform="scale(0.26458333)" />
  </g>
</svg>
